<?xml version="1.0" encoding="UTF-8" standalone="no"?>
<!-- Created with Inkscape (http://www.inkscape.org/) -->

<svg
   width="36.143974mm"
   height="29.999632mm"
   viewBox="0 0 36.143974 29.999632"
   version="1.1"
   id="svg1"
   xml:space="preserve"
   xmlns="http://www.w3.org/2000/svg"
   xmlns:svg="http://www.w3.org/2000/svg"><defs
     id="defs1" /><g
     id="layer5"
     style="display:inline"
     transform="translate(-69.416939,-115.00023)"><path
       d="m 79.992533,115.00022 a 5.0000024,4.9749961 0 0 0 -4.300512,2.44946 l -0.314193,0.62838 -0.377755,0.75551 -0.58291,1.16634 -1.250053,2.50011 -0.01447,0.0284 -1.235584,2.47168 -1.917195,3.83388 v 0.0315 a 3.7501504,3.7501501 0 0 1 -0.01034,-0.0109 l -0.572575,1.14515 h 0.582911 2.687174 a 3.7501504,3.7501501 0 0 0 2.313037,-0.79789 3.7501504,3.7501501 0 0 0 0.956014,-1.11362 l 0.162781,-0.3266 1.380794,-2.76159 0.283187,-0.56585 0.966866,-1.93425 1.250053,-2.50011 h 5.000212 3.000333 1.999878 4.999695 5.17e-4 4.999692 l -2.50062,2.50062 -1.013375,1.01338 -1.486214,1.48621 -2.458765,2.45877 -1.563728,1.56373 -0.977202,0.9772 0.999939,-5.99964 0.05943,-0.0599 1.440222,-1.44022 h -2.499589 -2.455664 a 5.0000024,4.9749961 0 0 0 -0.0036,0 5.0000024,4.9749961 0 0 0 -2.54093,0.69039 5.0000024,4.9749961 0 0 0 -0.622185,0.43202 5.0000024,4.9749961 0 0 0 -0.724503,0.7245 l -0.65319,0.65319 -4.999695,4.9997 -3.000334,3.00033 -1.999878,1.99988 -1.213879,1.21388 -0.286288,0.28629 -0.01395,-0.0145 a 5.0000024,4.9749961 0 0 0 -0.794267,1.0144 5.0000024,4.9749961 0 0 0 -0.691947,2.50011 5.0000024,4.9749961 0 0 0 0,0.0248 5.0000024,4.9749961 0 0 0 1.460892,3.514 5.0000024,4.9749961 0 0 0 3.539319,1.46089 h 9.999907 5.000211 4.999695 v -0.0248 a 5.0000024,4.9749961 0 0 0 4.5868,-2.99465 l 0.987538,-1.98024 1.24644,-2.50011 0.0155,-0.0305 1.23145,-2.46962 1.92908,-3.86902 0.003,-0.006 0.56121,-1.12499 h -0.56121 -2.68717 a 3.7501504,3.7501501 0 0 0 -3.431321,2.23759 3.7501504,3.7501501 0 0 0 -0.0031,0.007 l -1.37821,2.75591 -0.272852,0.5457 -0.977201,1.9544 -1.250053,2.50011 H 90.000191 86.999858 84.99998 79.999768 75.000073 v -5.2e-4 l 2.499589,-2.49959 1.014409,-1.01441 1.485697,-1.48569 2.426725,-2.42621 a 5.0000024,4.9749961 0 0 1 0,-5.2e-4 l 1.579749,-1.57975 0.993738,-0.99374 -1.075904,6.07612 -1.424202,1.4242 h 2.500106 2.425691 5.17e-4 a 5.0000024,4.9749961 0 0 0 2.574003,-0.71003 5.0000024,4.9749961 0 0 0 1.299663,-1.13223 5.0000024,4.9749961 0 0 1 -0.205673,0.24804 l 0.905888,-0.90588 2.999817,-2.99982 2.000395,-2.0004 4.999699,-4.99969 1.21387,-1.21388 0.28578,-0.28577 0.0145,0.0134 a 5.0000024,4.9749961 0 0 0 0.79323,-1.01337 5.0000024,4.9749961 0 0 0 0.69246,-2.50062 5.0000024,4.9749961 0 0 0 0,-0.0248 5.0000024,4.9749961 0 0 0 -1.46037,-3.51451 5.0000024,4.9749961 0 0 0 -3.53932,-1.46038 5.0000024,4.9749961 0 0 0 -0.01034,0 H 94.999886 90.000191 84.99998 80.007003 a 5.0000024,4.9749961 0 0 1 0.278019,0.0186 5.0000024,4.9749961 0 0 0 -0.285254,-0.0186 5.0000024,4.9749961 0 0 0 -0.0072,0 z"
       style="display:inline;fill:#000000;stroke:none;stroke-width:0;paint-order:stroke fill markers"
       id="path142" /></g></svg>
